<mxfile host="app.diagrams.net" modified="2023-09-03T08:04:06.894Z" agent="Mozilla/5.0 (Macintosh; Intel Mac OS X 10_15_7) AppleWebKit/537.36 (KHTML, like Gecko) Chrome/116.0.0.0 Safari/537.36" etag="o4Ibs1ju7Rh2ZuVrBc5p" version="21.7.2" type="device">
  <diagram name="第 1 页" id="8F3J_xZsMCBzZ8j09Nm7">
    <mxGraphModel dx="954" dy="585" grid="1" gridSize="10" guides="1" tooltips="1" connect="1" arrows="1" fold="1" page="1" pageScale="1" pageWidth="827" pageHeight="1169" math="0" shadow="0">
      <root>
        <mxCell id="0" />
        <mxCell id="1" parent="0" />
        <mxCell id="NkU5MeKO8JjxOITZvHsi-1" value="" style="rounded=0;whiteSpace=wrap;html=1;" vertex="1" parent="1">
          <mxGeometry x="310" y="213" width="140" height="367" as="geometry" />
        </mxCell>
        <mxCell id="NkU5MeKO8JjxOITZvHsi-2" value="&lt;font style=&quot;font-size: 18px;&quot;&gt;Thread struct&lt;/font&gt;" style="text;html=1;align=center;verticalAlign=middle;resizable=0;points=[];autosize=1;strokeColor=none;fillColor=none;" vertex="1" parent="1">
          <mxGeometry x="315" y="173" width="130" height="40" as="geometry" />
        </mxCell>
        <mxCell id="NkU5MeKO8JjxOITZvHsi-12" value="" style="group" vertex="1" connectable="0" parent="1">
          <mxGeometry x="320" y="213" width="120" height="150" as="geometry" />
        </mxCell>
        <mxCell id="NkU5MeKO8JjxOITZvHsi-9" value="" style="group" vertex="1" connectable="0" parent="NkU5MeKO8JjxOITZvHsi-12">
          <mxGeometry y="30" width="120" height="120" as="geometry" />
        </mxCell>
        <mxCell id="NkU5MeKO8JjxOITZvHsi-5" value="" style="rounded=0;whiteSpace=wrap;html=1;" vertex="1" parent="NkU5MeKO8JjxOITZvHsi-9">
          <mxGeometry width="120" height="120" as="geometry" />
        </mxCell>
        <mxCell id="NkU5MeKO8JjxOITZvHsi-6" value="" style="rounded=0;whiteSpace=wrap;html=1;" vertex="1" parent="NkU5MeKO8JjxOITZvHsi-9">
          <mxGeometry y="20" width="120" height="20" as="geometry" />
        </mxCell>
        <mxCell id="NkU5MeKO8JjxOITZvHsi-7" value="" style="rounded=0;whiteSpace=wrap;html=1;" vertex="1" parent="NkU5MeKO8JjxOITZvHsi-9">
          <mxGeometry y="40" width="120" height="20" as="geometry" />
        </mxCell>
        <mxCell id="NkU5MeKO8JjxOITZvHsi-8" value="" style="rounded=0;whiteSpace=wrap;html=1;" vertex="1" parent="NkU5MeKO8JjxOITZvHsi-9">
          <mxGeometry y="84" width="120" height="20" as="geometry" />
        </mxCell>
        <mxCell id="NkU5MeKO8JjxOITZvHsi-10" value="......" style="text;html=1;strokeColor=none;fillColor=none;align=center;verticalAlign=middle;whiteSpace=wrap;rounded=0;" vertex="1" parent="NkU5MeKO8JjxOITZvHsi-9">
          <mxGeometry x="20" y="54" width="60" height="30" as="geometry" />
        </mxCell>
        <mxCell id="NkU5MeKO8JjxOITZvHsi-11" value="&lt;font style=&quot;font-size: 14px;&quot;&gt;specific_1stblock&lt;/font&gt;" style="text;html=1;strokeColor=none;fillColor=none;align=center;verticalAlign=middle;whiteSpace=wrap;rounded=0;" vertex="1" parent="NkU5MeKO8JjxOITZvHsi-12">
          <mxGeometry x="30" width="60" height="30" as="geometry" />
        </mxCell>
        <mxCell id="NkU5MeKO8JjxOITZvHsi-13" value="" style="group" vertex="1" connectable="0" parent="1">
          <mxGeometry x="320" y="450" width="120" height="120" as="geometry" />
        </mxCell>
        <mxCell id="NkU5MeKO8JjxOITZvHsi-14" value="" style="rounded=0;whiteSpace=wrap;html=1;" vertex="1" parent="NkU5MeKO8JjxOITZvHsi-13">
          <mxGeometry width="120" height="120" as="geometry" />
        </mxCell>
        <mxCell id="NkU5MeKO8JjxOITZvHsi-15" value="" style="rounded=0;whiteSpace=wrap;html=1;" vertex="1" parent="NkU5MeKO8JjxOITZvHsi-13">
          <mxGeometry y="20" width="120" height="20" as="geometry" />
        </mxCell>
        <mxCell id="NkU5MeKO8JjxOITZvHsi-16" value="" style="rounded=0;whiteSpace=wrap;html=1;" vertex="1" parent="NkU5MeKO8JjxOITZvHsi-13">
          <mxGeometry y="40" width="120" height="20" as="geometry" />
        </mxCell>
        <mxCell id="NkU5MeKO8JjxOITZvHsi-17" value="" style="rounded=0;whiteSpace=wrap;html=1;" vertex="1" parent="NkU5MeKO8JjxOITZvHsi-13">
          <mxGeometry y="84" width="120" height="20" as="geometry" />
        </mxCell>
        <mxCell id="NkU5MeKO8JjxOITZvHsi-18" value="......" style="text;html=1;strokeColor=none;fillColor=none;align=center;verticalAlign=middle;whiteSpace=wrap;rounded=0;" vertex="1" parent="NkU5MeKO8JjxOITZvHsi-13">
          <mxGeometry x="20" y="54" width="60" height="30" as="geometry" />
        </mxCell>
        <mxCell id="NkU5MeKO8JjxOITZvHsi-19" value="&lt;font style=&quot;font-size: 14px;&quot;&gt;specific&lt;/font&gt;" style="text;html=1;strokeColor=none;fillColor=none;align=center;verticalAlign=middle;whiteSpace=wrap;rounded=0;" vertex="1" parent="1">
          <mxGeometry x="350" y="420" width="60" height="30" as="geometry" />
        </mxCell>
        <mxCell id="NkU5MeKO8JjxOITZvHsi-27" value="" style="endArrow=classic;html=1;rounded=0;exitX=0.992;exitY=0.104;exitDx=0;exitDy=0;exitPerimeter=0;entryX=0.135;entryY=1.183;entryDx=0;entryDy=0;entryPerimeter=0;" edge="1" parent="1" source="NkU5MeKO8JjxOITZvHsi-5" target="NkU5MeKO8JjxOITZvHsi-24">
          <mxGeometry width="50" height="50" relative="1" as="geometry">
            <mxPoint x="510" y="350" as="sourcePoint" />
            <mxPoint x="560" y="300" as="targetPoint" />
          </mxGeometry>
        </mxCell>
        <mxCell id="NkU5MeKO8JjxOITZvHsi-28" value="" style="group" vertex="1" connectable="0" parent="1">
          <mxGeometry x="570" y="230" width="170" height="100" as="geometry" />
        </mxCell>
        <mxCell id="NkU5MeKO8JjxOITZvHsi-20" value="" style="rounded=0;whiteSpace=wrap;html=1;" vertex="1" parent="NkU5MeKO8JjxOITZvHsi-28">
          <mxGeometry x="25" y="32" width="120" height="60" as="geometry" />
        </mxCell>
        <mxCell id="NkU5MeKO8JjxOITZvHsi-21" value="" style="rounded=0;whiteSpace=wrap;html=1;" vertex="1" parent="NkU5MeKO8JjxOITZvHsi-28">
          <mxGeometry x="25" y="70" width="120" height="30" as="geometry" />
        </mxCell>
        <mxCell id="NkU5MeKO8JjxOITZvHsi-25" value="" style="group" vertex="1" connectable="0" parent="NkU5MeKO8JjxOITZvHsi-28">
          <mxGeometry width="170" height="93" as="geometry" />
        </mxCell>
        <mxCell id="NkU5MeKO8JjxOITZvHsi-22" value="&lt;font style=&quot;font-size: 14px;&quot;&gt;uintptr_t seq&lt;/font&gt;" style="text;html=1;strokeColor=none;fillColor=none;align=center;verticalAlign=middle;whiteSpace=wrap;rounded=0;" vertex="1" parent="NkU5MeKO8JjxOITZvHsi-25">
          <mxGeometry x="39" y="30" width="95" height="33" as="geometry" />
        </mxCell>
        <mxCell id="NkU5MeKO8JjxOITZvHsi-23" value="&lt;font style=&quot;font-size: 14px;&quot;&gt;void* data&lt;/font&gt;" style="text;html=1;strokeColor=none;fillColor=none;align=center;verticalAlign=middle;whiteSpace=wrap;rounded=0;" vertex="1" parent="NkU5MeKO8JjxOITZvHsi-25">
          <mxGeometry x="39" y="63" width="98" height="30" as="geometry" />
        </mxCell>
        <mxCell id="NkU5MeKO8JjxOITZvHsi-24" value="&lt;font style=&quot;font-size: 16px;&quot;&gt;pthread_key_data&lt;/font&gt;" style="text;html=1;strokeColor=none;fillColor=none;align=center;verticalAlign=middle;whiteSpace=wrap;rounded=0;" vertex="1" parent="NkU5MeKO8JjxOITZvHsi-25">
          <mxGeometry width="170" height="30" as="geometry" />
        </mxCell>
        <mxCell id="NkU5MeKO8JjxOITZvHsi-29" value="" style="endArrow=classic;html=1;rounded=0;exitX=1;exitY=0.5;exitDx=0;exitDy=0;" edge="1" parent="1" source="NkU5MeKO8JjxOITZvHsi-15">
          <mxGeometry width="50" height="50" relative="1" as="geometry">
            <mxPoint x="530" y="480" as="sourcePoint" />
            <mxPoint x="590" y="270" as="targetPoint" />
          </mxGeometry>
        </mxCell>
      </root>
    </mxGraphModel>
  </diagram>
</mxfile>
